<svg id="BLUE-WEB" xmlns="http://www.w3.org/2000/svg" xmlns:xlink="http://www.w3.org/1999/xlink" viewBox="0 0 367.55 71.53"><defs><style>.cls-1{fill:#00539c;}.cls-2{fill:url(#_00529c);}</style><linearGradient id="_00529c" x1="11.08" y1="57.34" x2="61.26" y2="15.24" gradientUnits="userSpaceOnUse"><stop offset="0" stop-color="#fff"/><stop offset="1" stop-color="#9aabce"/></linearGradient></defs><title>IFCJ-US-BLUE-WEB_LOGO</title><g id="IFCJ"><path class="cls-1" d="M249.28,20.93h6.66c0.38,0,.52.17,0.38,0.43l-0.41.72a1,1,0,0,1-.92.4h-5.7v6.22c0,1.12.43,1.29,1.84,1.58,0.38,0.06.43,0.29,0.32,0.52l-0.23.52a0.55,0.55,0,0,1-.49.2h-6.05c-0.23,0-.52-0.06-0.38-0.43l0.17-.46a0.64,0.64,0,0,1,.55-0.4,1.54,1.54,0,0,0,1.47-1.53V14.42c0-1.12-.57-1.55-1.81-1.76-0.43-.09-0.69-0.17-0.55-0.49l0.23-.49a0.5,0.5,0,0,1,.49-0.32h11.78a0.7,0.7,0,0,1,.83.72v2.1a0.39,0.39,0,0,1-.14.26l-0.52.43c-0.43.34-.87-2-2.8-2h-4.72v8Z" transform="translate(-0.06 -0.06)"/><path class="cls-1" d="M259.32,24.74c0,2.76,1.49,5.52,4.44,5.52A4.68,4.68,0,0,0,267.07,29c0.22-.2.74,0.25,0.63,0.44L267,30.81a1.31,1.31,0,0,1-.52.58,9.06,9.06,0,0,1-3,.47,6.72,6.72,0,0,1-6.79-7c0-4.72,2.81-7.48,6.43-7.48,3.37,0,5.27,2.54,5.27,6.24a1,1,0,0,1-.63,1.1h-8.42Zm5.33-1.3A1.13,1.13,0,0,0,266,22.23c0-2.68-1.52-3.59-2.92-3.59-2.32,0-3.73,2.29-3.73,4.8h5.33Z" transform="translate(-0.06 -0.06)"/><path class="cls-1" d="M273.81,28.83c0,1.08.41,1.24,1.74,1.52,0.36,0.05.42,0.27,0.3,0.5l-0.22.5a0.53,0.53,0,0,1-.47.19h-5.58c-0.22,0-.5-0.06-0.36-0.41l0.17-.44a0.61,0.61,0,0,1,.52-0.39,1.48,1.48,0,0,0,1.41-1.46V14c0-1.08-.41-1.24-1.68-1.49-0.28-.08-0.55-0.19-0.39-0.52l0.25-.49a0.37,0.37,0,0,1,.42-0.2h3.17a0.66,0.66,0,0,1,.72.83V28.83Z" transform="translate(-0.06 -0.06)"/><path class="cls-1" d="M281.18,28.83c0,1.08.41,1.24,1.74,1.52,0.36,0.05.41,0.27,0.3,0.5l-0.22.5a0.53,0.53,0,0,1-.47.19H277c-0.22,0-.5-0.06-0.36-0.41l0.17-.44a0.61,0.61,0,0,1,.52-0.39,1.48,1.48,0,0,0,1.41-1.46V14c0-1.08-.41-1.24-1.68-1.49-0.28-.08-0.55-0.19-0.39-0.52l0.25-.49a0.37,0.37,0,0,1,.41-0.2h3.17a0.66,0.66,0,0,1,.72.83V28.83Z" transform="translate(-0.06 -0.06)"/><path class="cls-1" d="M297.82,24.36a7.18,7.18,0,0,1-7.2,7.51c-4.22,0-6.51-3.64-6.51-7,0-5.08,3.67-7.51,7.2-7.51,3.89,0,6.51,3.15,6.51,7m-11.07-.52c0,4.45,2.21,6.74,4.31,6.74,3.09,0,4.11-2.71,4.11-5.85,0-3.56-1.68-6-4.2-6s-4.22,2.32-4.22,5.13" transform="translate(-0.06 -0.06)"/><path class="cls-1" d="M313.22,31c-0.14.33-.19,0.53-0.41,0.53h-0.64a0.66,0.66,0,0,1-.41-0.55l-3.28-9.05L304.58,31c-0.14.33-.19,0.53-0.41,0.53h-0.64a0.67,0.67,0,0,1-.41-0.55l-3.59-10.32a2.25,2.25,0,0,0-1.08-1.49c-0.39-.19-0.66-0.28-0.55-0.53l0.25-.61a0.5,0.5,0,0,1,.52-0.3h5.38c0.27,0,.49.08,0.3,0.5l-0.19.44c-0.22.5-2.51,0.17-1.93,1.88l2.21,6.63,3.7-8.89a0.66,0.66,0,0,1,.41-0.55h0.63c0.22,0,.28.19,0.38,0.55l3.2,9,2.67-6.68c0.64-1.6-2.4-1.46-2-2.15l0.19-.3a0.65,0.65,0,0,1,.53-0.41h4.39c0.3,0,.58.08,0.47,0.47l-0.14.47c-0.16.47-.44,0.19-1.07,0.83a3.17,3.17,0,0,0-.72,1.16Z" transform="translate(-0.06 -0.06)"/><path class="cls-1" d="M318.93,27.7a0.59,0.59,0,0,1,.11-0.55l0.53-.17c0.36-.14.33,0.88,0.88,1.82a3,3,0,0,0,2.82,1.91A2.52,2.52,0,0,0,326,28.11c-0.06-1.41-2.24-2.43-3.5-3.29-1.46-1-3.23-1.63-3.23-3.73,0-2.51,2.84-3.7,4.75-3.7a13.82,13.82,0,0,1,2.87.28,0.81,0.81,0,0,1,.72.77v1.91a0.51,0.51,0,0,1-.11.25l-0.47.39c-0.17.17-.55-0.72-0.88-1.3a2.59,2.59,0,0,0-2.29-1.1c-1.19,0-2.32.69-2.26,1.85,0.06,0.85,1,1.38,2.9,2.54,2.48,1.66,3.89,2.59,3.89,4.66,0,3.12-2.87,4.22-5.08,4.22a7,7,0,0,1-3.67-.77,1.12,1.12,0,0,1-.75-0.86V27.7Z" transform="translate(-0.06 -0.06)"/><path class="cls-1" d="M333.12,20.52h0.05a6,6,0,0,1,5.36-3.12c2.54,0,4,1.44,4,4.72v6.71c0,1.08.42,1.24,1.77,1.52,0.36,0.05.42,0.27,0.3,0.5l-0.22.5a0.54,0.54,0,0,1-.47.19h-5.58c-0.22,0-.5-0.06-0.36-0.41l0.16-.44a0.61,0.61,0,0,1,.52-0.39A1.48,1.48,0,0,0,340,28.83V23.61c0-3.15-.55-4.44-2.59-4.44-2.21,0-4.33,2-4.33,7.84v1.82c0,1.08.41,1.24,1.74,1.52,0.36,0.05.41,0.27,0.3,0.5l-0.22.5a0.53,0.53,0,0,1-.47.19h-5.58c-0.22,0-.5-0.06-0.36-0.41l0.17-.44a0.61,0.61,0,0,1,.52-0.39,1.48,1.48,0,0,0,1.41-1.46V14c0-1.08-.41-1.24-1.68-1.49-0.28-.08-0.55-0.19-0.39-0.52l0.25-.49a0.37,0.37,0,0,1,.41-0.2h3.23c0.3,0,.66,0,0.66.55v8.72Z" transform="translate(-0.06 -0.06)"/><path class="cls-1" d="M347.44,20.44c0-1.08-.41-1.24-1.69-1.49-0.27-.08-0.55-0.19-0.38-0.52l0.25-.5a0.37,0.37,0,0,1,.41-0.19h3.89V28.83c0,1.08.42,1.24,1.77,1.52,0.36,0.05.41,0.27,0.3,0.5l-0.22.5a0.54,0.54,0,0,1-.47.19h-5.6c-0.22,0-.5-0.06-0.36-0.41l0.17-.44a0.61,0.61,0,0,1,.52-0.39,1.48,1.48,0,0,0,1.41-1.46V20.44Zm1.13-8.17a1.62,1.62,0,1,1-1.63,1.63,1.65,1.65,0,0,1,1.63-1.63" transform="translate(-0.06 -0.06)"/><path class="cls-1" d="M357.1,37.8c0,1.07.55,1.24,2.32,1.52,0.5,0.05.55,0.28,0.41,0.5l-0.3.5a0.8,0.8,0,0,1-.61.19h-6c-0.22,0-.5-0.05-0.36-0.41l0.17-.44a0.61,0.61,0,0,1,.52-0.39,1.48,1.48,0,0,0,1.41-1.46V20.44c0-1.08-.41-1.24-1.68-1.49-0.28-.08-0.55-0.19-0.39-0.52l0.25-.5a0.37,0.37,0,0,1,.41-0.19h3.17a0.7,0.7,0,0,1,.75.86v1.9h0.05a6,6,0,0,1,5.16-3.09c3.42,0,5.27,2.71,5.27,6.4A7.73,7.73,0,0,1,360,31.86a6.46,6.46,0,0,1-2.93-.58V37.8Zm0-11.79c0,2.76.61,4.69,3.07,4.69,3.09,0,4.8-3.37,4.8-6.68,0-2.48-1.08-5-3.62-5-2.15,0-4.25,2-4.25,7" transform="translate(-0.06 -0.06)"/><path class="cls-1" d="M83.3,15c0-1.07-.41-1.23-1.76-1.51-0.36-.05-0.41-0.28-0.3-0.49l0.22-.49a0.54,0.54,0,0,1,.47-0.19h5.76c0.22,0,.49.05,0.36,0.41l-0.16.44a0.61,0.61,0,0,1-.52.38A1.47,1.47,0,0,0,86,15V28.86c0,1.07.41,1.23,1.76,1.51,0.36,0.05.41,0.27,0.3,0.49l-0.22.5a0.53,0.53,0,0,1-.47.19H81.57c-0.22,0-.49-0.05-0.36-0.41l0.17-.44a0.6,0.6,0,0,1,.52-0.38,1.47,1.47,0,0,0,1.4-1.46V15Z" transform="translate(-0.06 -0.06)"/><path class="cls-1" d="M93.29,20.6h0.06a5.91,5.91,0,0,1,5.32-3.1c2.52,0,4,1.43,4,4.69v6.67c0,1.07.41,1.23,1.76,1.51,0.36,0.05.41,0.27,0.3,0.49l-0.22.5a0.54,0.54,0,0,1-.47.19H98.48c-0.22,0-.49-0.05-0.36-0.41l0.17-.44a0.6,0.6,0,0,1,.52-0.38,1.47,1.47,0,0,0,1.37-1.46V23.67c0-3.13-.55-4.42-2.58-4.42-2.2,0-4.31,1.95-4.31,7.79v1.81c0,1.07.41,1.23,1.73,1.51,0.36,0.05.41,0.27,0.3,0.49l-0.22.5a0.54,0.54,0,0,1-.47.19H89.09c-0.22,0-.5-0.05-0.36-0.41l0.16-.44a0.61,0.61,0,0,1,.52-0.38,1.47,1.47,0,0,0,1.4-1.46V20.52c0-1.07-.41-1.24-1.67-1.48-0.27-.08-0.55-0.19-0.38-0.52L89,18a0.37,0.37,0,0,1,.41-0.19h3.21c0.3,0,.66,0,0.66.55V20.6Z" transform="translate(-0.06 -0.06)"/><path class="cls-1" d="M113.19,18.65l-0.55.55h-3.49v8.26c0,1.73.44,2.61,1.4,2.61a2.64,2.64,0,0,0,1.51-.38,0.23,0.23,0,0,1,.33,0l0.41,0.6a0.19,0.19,0,0,1-.05.3l-0.71.52a3.57,3.57,0,0,1-2.25.77c-2.14,0-3.1-1.43-3.1-4.36V19.2h-2.33V17.83h2.33V15.08l1.43-1.26c0.3-.27,1-0.27,1,0.05v4h4v0.82Z" transform="translate(-0.06 -0.06)"/><path class="cls-1" d="M115.82,24.8c0,2.75,1.48,5.49,4.42,5.49A4.65,4.65,0,0,0,123.54,29a0.48,0.48,0,0,1,.63.44l-0.74,1.37a1.31,1.31,0,0,1-.52.58,9.06,9.06,0,0,1-3,.47,6.68,6.68,0,0,1-6.75-6.94c0-4.69,2.8-7.44,6.39-7.44,3.35,0,5.24,2.52,5.24,6.2a1,1,0,0,1-.63,1.1h-8.37Zm5.3-1.29a1.12,1.12,0,0,0,1.32-1.21c0-2.66-1.51-3.57-2.91-3.57-2.31,0-3.7,2.28-3.7,4.78h5.3Z" transform="translate(-0.06 -0.06)"/><path class="cls-1" d="M130.26,20.13c1.35-1.59,2.66-2.63,3.71-2.63a1.09,1.09,0,0,1,1.13.74l0.74,1.48a0.27,0.27,0,0,1-.06.25l-0.69.79c-0.27.33-1.45-.82-2.52-0.82s-2.33,1-2.33,3.65v5.27a1.11,1.11,0,0,0,.49,1.1c0.69,0.55,2.36.19,1.87,1l-0.22.38a0.87,0.87,0,0,1-.85.22h-5.13c-0.44,0-.88.08-0.69-0.46l0.14-.39c0.16-.52.93-0.22,1.48-0.74a1.24,1.24,0,0,0,.44-1.1V20.52c0-1.07-.41-1.24-1.67-1.48-0.27-.08-0.55-0.19-0.38-0.52L126,18a0.37,0.37,0,0,1,.41-0.19h3.24c0.3,0,.66,0,0.66.55v1.76Z" transform="translate(-0.06 -0.06)"/><path class="cls-1" d="M140.94,20.6H141a5.91,5.91,0,0,1,5.32-3.1c2.53,0,4,1.43,4,4.69v6.67c0,1.07.41,1.23,1.76,1.51,0.36,0.05.41,0.27,0.3,0.49l-0.22.5a0.54,0.54,0,0,1-.47.19h-5.54c-0.22,0-.49-0.05-0.36-0.41l0.17-.44a0.6,0.6,0,0,1,.52-0.38,1.47,1.47,0,0,0,1.37-1.46V23.67c0-3.13-.55-4.42-2.58-4.42-2.2,0-4.31,1.95-4.31,7.79v1.81c0,1.07.41,1.23,1.73,1.51,0.36,0.05.41,0.27,0.3,0.49l-0.22.5a0.54,0.54,0,0,1-.47.19h-5.54c-0.22,0-.49-0.05-0.36-0.41l0.17-.44a0.6,0.6,0,0,1,.52-0.38,1.47,1.47,0,0,0,1.4-1.46V20.52c0-1.07-.41-1.24-1.67-1.48-0.27-.08-0.55-0.19-0.38-0.52l0.25-.49a0.37,0.37,0,0,1,.41-0.19h3.21c0.3,0,.66,0,0.66.55V20.6Z" transform="translate(-0.06 -0.06)"/><path class="cls-1" d="M166.38,28.67a1.29,1.29,0,0,0,.77,1.43c0.52,0.22,1.15.19,1,.55L168,31.3a0.55,0.55,0,0,1-.63.25h-2.66a0.7,0.7,0,0,1-.77-0.85V28h-0.05a5.79,5.79,0,0,1-5.11,3.87c-3.29,0-5.24-3.07-5.24-6.37a7.81,7.81,0,0,1,7.52-8,11.1,11.1,0,0,1,3.84.74c0.8,0.3,1.51.52,1.51,2.31v8.12ZM156.14,25c0,2.94,1.18,5.24,3.16,5.24s4.61-2.88,4.61-6.94c0-2.53-.3-4.64-3-4.64C157.81,18.68,156.14,22,156.14,25Z" transform="translate(-0.06 -0.06)"/><path class="cls-1" d="M177,18.65l-0.55.55H173v8.26c0,1.73.44,2.61,1.4,2.61a2.64,2.64,0,0,0,1.51-.38,0.23,0.23,0,0,1,.33,0l0.41,0.6a0.19,0.19,0,0,1-.05.3l-0.71.52a3.56,3.56,0,0,1-2.25.77c-2.14,0-3.1-1.43-3.1-4.36V19.2h-2.33V17.83h2.33V15.08l1.43-1.26c0.3-.27,1-0.27,1,0.05v4h4v0.82Z" transform="translate(-0.06 -0.06)"/><path class="cls-1" d="M179.5,20.52c0-1.07-.41-1.24-1.67-1.48-0.27-.08-0.55-0.19-0.38-0.52l0.25-.49a0.37,0.37,0,0,1,.41-0.19H182v11c0,1.07.41,1.23,1.76,1.51,0.36,0.05.41,0.27,0.3,0.49l-0.22.5a0.54,0.54,0,0,1-.47.19h-5.57c-0.22,0-.5-0.05-0.36-0.41l0.16-.44a0.61,0.61,0,0,1,.52-0.38,1.47,1.47,0,0,0,1.4-1.46V20.52Zm1.12-8.12A1.61,1.61,0,1,1,179,14,1.64,1.64,0,0,1,180.62,12.39Z" transform="translate(-0.06 -0.06)"/><path class="cls-1" d="M198.82,24.41a7.14,7.14,0,0,1-7.16,7.47c-4.2,0-6.48-3.62-6.48-6.92,0-5.05,3.65-7.47,7.16-7.47C196.21,17.5,198.82,20.63,198.82,24.41Zm-11-.52c0,4.42,2.2,6.7,4.28,6.7,3.07,0,4.09-2.69,4.09-5.82,0-3.54-1.67-6-4.17-6S187.81,21.09,187.81,23.89Z" transform="translate(-0.06 -0.06)"/><path class="cls-1" d="M204.22,20.6h0.05a5.92,5.92,0,0,1,5.33-3.1c2.52,0,4,1.43,4,4.69v6.67c0,1.07.41,1.23,1.76,1.51,0.36,0.05.41,0.27,0.3,0.49l-0.22.5a0.53,0.53,0,0,1-.47.19h-5.54c-0.22,0-.49-0.05-0.36-0.41l0.16-.44a0.61,0.61,0,0,1,.52-0.38,1.47,1.47,0,0,0,1.37-1.46V23.67c0-3.13-.55-4.42-2.58-4.42-2.2,0-4.31,1.95-4.31,7.79v1.81c0,1.07.41,1.23,1.73,1.51,0.36,0.05.41,0.27,0.3,0.49l-0.22.5a0.53,0.53,0,0,1-.46.19H200c-0.22,0-.49-0.05-0.36-0.41l0.17-.44a0.6,0.6,0,0,1,.52-0.38,1.47,1.47,0,0,0,1.4-1.46V20.52c0-1.07-.41-1.24-1.67-1.48-0.27-.08-0.55-0.19-0.38-0.52l0.25-.49a0.37,0.37,0,0,1,.41-0.19h3.21c0.3,0,.66,0,0.66.55V20.6Z" transform="translate(-0.06 -0.06)"/><path class="cls-1" d="M229.39,28.67a1.28,1.28,0,0,0,.77,1.43c0.52,0.22,1.15.19,1,.55L231,31.3a0.54,0.54,0,0,1-.63.25h-2.66a0.7,0.7,0,0,1-.77-0.85V28h-0.05a5.79,5.79,0,0,1-5.1,3.87c-3.29,0-5.24-3.07-5.24-6.37a7.81,7.81,0,0,1,7.52-8,11.11,11.11,0,0,1,3.84.74c0.8,0.3,1.51.52,1.51,2.31v8.12ZM219.15,25c0,2.94,1.18,5.24,3.16,5.24s4.61-2.88,4.61-6.94c0-2.53-.3-4.64-3-4.64C220.83,18.68,219.15,22,219.15,25Z" transform="translate(-0.06 -0.06)"/><path class="cls-1" d="M236,28.86c0,1.07.41,1.23,1.73,1.51,0.36,0.05.41,0.27,0.3,0.49l-0.22.5a0.53,0.53,0,0,1-.47.19h-5.54c-0.22,0-.49-0.05-0.36-0.41l0.17-.44a0.6,0.6,0,0,1,.52-0.38,1.47,1.47,0,0,0,1.4-1.46V14.07c0-1.07-.41-1.24-1.67-1.48-0.28-.08-0.55-0.19-0.38-0.52l0.25-.49a0.37,0.37,0,0,1,.41-0.19h3.16a0.66,0.66,0,0,1,.71.83V28.86Z" transform="translate(-0.06 -0.06)"/><path class="cls-1" d="M94.5,50.08a7.14,7.14,0,0,1-7.16,7.46c-4.2,0-6.48-3.62-6.48-6.92,0-5.05,3.65-7.47,7.16-7.47C91.89,43.16,94.5,46.29,94.5,50.08Zm-11-.52c0,4.42,2.2,6.7,4.28,6.7,3.07,0,4.09-2.69,4.09-5.82,0-3.54-1.67-6-4.17-6S83.49,46.76,83.49,49.56Z" transform="translate(-0.06 -0.06)"/><path class="cls-1" d="M103.67,44.32l-0.55.54H99.91v9.66c0,1.07.41,1.23,1.76,1.51,0.36,0.06.41,0.28,0.3,0.49l-0.22.49a0.54,0.54,0,0,1-.47.19H95.71c-0.22,0-.49-0.05-0.36-0.41l0.16-.44A0.61,0.61,0,0,1,96,56a1.47,1.47,0,0,0,1.4-1.46V44.87H95.57V43.49h1.87V41.93a4.08,4.08,0,0,1,2-3.46A8.6,8.6,0,0,1,102.13,37a3,3,0,0,1,2,.3l1.18,1a0.33,0.33,0,0,1-.06.44l-0.44.66a0.51,0.51,0,0,1-.52,0l-1-.33a7.39,7.39,0,0,0-2.14-.44c-0.6,0-1.26.44-1.26,1.87v2.91h3.76v0.83Z" transform="translate(-0.06 -0.06)"/><path class="cls-1" d="M127.08,55.87a4.14,4.14,0,0,1-.74,1.1,14.21,14.21,0,0,1-4.91.58c-6.81,0-11.09-4.12-11.09-10.1,0-5.38,4.5-9.77,10.43-9.77a13.86,13.86,0,0,1,6.4,1.43,0.43,0.43,0,0,1,.27.52v1.84a0.37,0.37,0,0,1-.14.25l-0.52.44c-0.41.3-.52-3-6.09-3-4.78,0-7.36,3.59-7.36,8.07,0,5.49,3.76,8.84,8.43,8.84a9.54,9.54,0,0,0,5.05-1.45c0.58-.41,1-0.19.71,0.44Z" transform="translate(-0.06 -0.06)"/><path class="cls-1" d="M132.71,46.26h0.05a5.92,5.92,0,0,1,5.32-3.1c2.53,0,4,1.43,4,4.7v6.67c0,1.07.41,1.23,1.76,1.51,0.36,0.06.41,0.28,0.3,0.49L143.9,57a0.54,0.54,0,0,1-.47.19h-5.54c-0.22,0-.49-0.05-0.36-0.41l0.16-.44a0.61,0.61,0,0,1,.52-0.38,1.47,1.47,0,0,0,1.37-1.46V49.34c0-3.13-.55-4.42-2.58-4.42-2.2,0-4.31,1.95-4.31,7.8v1.81c0,1.07.41,1.23,1.73,1.51,0.36,0.06.41,0.28,0.3,0.49l-0.22.49a0.54,0.54,0,0,1-.47.19h-5.54c-0.22,0-.49-0.05-0.36-0.41l0.16-.44a0.61,0.61,0,0,1,.52-0.38,1.47,1.47,0,0,0,1.4-1.46V39.73c0-1.07-.41-1.23-1.67-1.48-0.27-.08-0.55-0.19-0.38-0.52l0.25-.49a0.37,0.37,0,0,1,.41-0.19H132c0.3,0,.66,0,0.66.55v8.67Z" transform="translate(-0.06 -0.06)"/><path class="cls-1" d="M149.45,45.8c1.34-1.6,2.66-2.64,3.71-2.64a1.09,1.09,0,0,1,1.13.74L155,45.39a0.26,0.26,0,0,1-.06.25l-0.69.8c-0.28.33-1.46-.82-2.53-0.82s-2.33,1-2.33,3.65v5.27a1.12,1.12,0,0,0,.49,1.1c0.69,0.55,2.36.19,1.87,1l-0.22.39a0.88,0.88,0,0,1-.85.22h-5.13c-0.44,0-.88.08-0.69-0.46l0.14-.38c0.16-.52.93-0.22,1.48-0.74a1.25,1.25,0,0,0,.44-1.1V46.18c0-1.07-.41-1.24-1.68-1.48-0.27-.08-0.55-0.19-0.38-0.52l0.25-.49a0.37,0.37,0,0,1,.41-0.19h3.24c0.3,0,.66,0,0.66.55V45.8Z" transform="translate(-0.06 -0.06)"/><path class="cls-1" d="M157.63,46.18c0-1.07-.41-1.24-1.67-1.48-0.27-.08-0.55-0.19-0.38-0.52l0.25-.49a0.37,0.37,0,0,1,.41-0.19h3.87v11c0,1.07.41,1.23,1.76,1.51,0.36,0.06.41,0.28,0.3,0.49l-0.22.49a0.53,0.53,0,0,1-.47.19H155.9c-0.22,0-.49-0.05-0.36-0.41l0.16-.44a0.61,0.61,0,0,1,.52-0.38,1.47,1.47,0,0,0,1.4-1.46V46.18Zm1.13-8.12a1.61,1.61,0,1,1-1.62,1.62A1.64,1.64,0,0,1,158.75,38.06Z" transform="translate(-0.06 -0.06)"/><path class="cls-1" d="M163,53.4a0.59,0.59,0,0,1,.11-0.55l0.52-.16c0.36-.14.33,0.88,0.88,1.81a2.94,2.94,0,0,0,2.8,1.89,2.51,2.51,0,0,0,2.77-2.58c-0.05-1.4-2.22-2.41-3.49-3.26-1.46-1-3.21-1.62-3.21-3.71,0-2.5,2.83-3.68,4.72-3.68a13.79,13.79,0,0,1,2.85.28,0.81,0.81,0,0,1,.71.77V46.1a0.49,0.49,0,0,1-.11.25l-0.47.38c-0.16.16-.55-0.71-0.88-1.29a2.57,2.57,0,0,0-2.28-1.1c-1.18,0-2.31.69-2.25,1.84,0.05,0.85,1,1.37,2.88,2.53,2.47,1.65,3.87,2.58,3.87,4.64,0,3.1-2.85,4.2-5.05,4.2a7,7,0,0,1-3.65-.77,1.12,1.12,0,0,1-.74-0.85V53.4Z" transform="translate(-0.06 -0.06)"/><path class="cls-1" d="M181.53,44.32l-0.55.54H177.5v8.26c0,1.73.44,2.61,1.4,2.61a2.65,2.65,0,0,0,1.51-.38,0.22,0.22,0,0,1,.33,0l0.41,0.6a0.19,0.19,0,0,1-.05.3l-0.71.52a3.58,3.58,0,0,1-2.25.77c-2.14,0-3.1-1.43-3.1-4.37V44.87h-2.33V43.49H175V40.75l1.43-1.26c0.3-.28,1-0.28,1,0.05v4h4v0.83Z" transform="translate(-0.06 -0.06)"/><path class="cls-1" d="M184,46.18c0-1.07-.41-1.24-1.67-1.48-0.28-.08-0.55-0.19-0.38-0.52l0.25-.49a0.37,0.37,0,0,1,.41-0.19h3.87v11c0,1.07.41,1.23,1.76,1.51,0.36,0.06.41,0.28,0.3,0.49l-0.22.49a0.53,0.53,0,0,1-.47.19H182.3c-0.22,0-.49-0.05-0.36-0.41l0.16-.44a0.61,0.61,0,0,1,.52-0.38,1.47,1.47,0,0,0,1.4-1.46V46.18Zm1.12-8.12a1.61,1.61,0,1,1-1.62,1.62A1.64,1.64,0,0,1,185.15,38.06Z" transform="translate(-0.06 -0.06)"/><path class="cls-1" d="M202.17,54.34a1.28,1.28,0,0,0,.77,1.43c0.52,0.22,1.15.19,1,.55l-0.22.66a0.55,0.55,0,0,1-.63.25h-2.66a0.7,0.7,0,0,1-.77-0.85V53.68h-0.05a5.79,5.79,0,0,1-5.1,3.87c-3.29,0-5.24-3.08-5.24-6.37a7.81,7.81,0,0,1,7.52-8,11.07,11.07,0,0,1,3.84.74c0.8,0.3,1.51.52,1.51,2.3v8.13Zm-10.24-3.65c0,2.94,1.18,5.24,3.16,5.24S199.7,53,199.7,49c0-2.52-.3-4.64-3-4.64C193.61,44.35,191.93,47.66,191.93,50.69Z" transform="translate(-0.06 -0.06)"/><path class="cls-1" d="M208.81,46.26h0.05a5.92,5.92,0,0,1,5.33-3.1c2.52,0,4,1.43,4,4.7v6.67c0,1.07.41,1.23,1.76,1.51,0.36,0.06.41,0.28,0.3,0.49L220,57a0.54,0.54,0,0,1-.47.19H214c-0.22,0-.5-0.05-0.36-0.41l0.17-.44a0.61,0.61,0,0,1,.52-0.38,1.47,1.47,0,0,0,1.37-1.46V49.34c0-3.13-.55-4.42-2.58-4.42-2.19,0-4.31,1.95-4.31,7.8v1.81c0,1.07.41,1.23,1.73,1.51,0.36,0.06.41,0.28,0.3,0.49l-0.22.49a0.54,0.54,0,0,1-.47.19h-5.54c-0.22,0-.5-0.05-0.36-0.41l0.16-.44a0.61,0.61,0,0,1,.52-0.38,1.47,1.47,0,0,0,1.4-1.46V46.18c0-1.07-.41-1.24-1.67-1.48-0.28-.08-0.55-0.19-0.39-0.52l0.25-.49a0.37,0.37,0,0,1,.41-0.19h3.21c0.3,0,.66,0,0.66.55v2.22Z" transform="translate(-0.06 -0.06)"/><path class="cls-1" d="M220.94,53.4a0.59,0.59,0,0,1,.11-0.55l0.52-.16c0.36-.14.33,0.88,0.88,1.81a2.94,2.94,0,0,0,2.8,1.89A2.51,2.51,0,0,0,228,53.81c-0.05-1.4-2.22-2.41-3.48-3.26-1.46-1-3.21-1.62-3.21-3.71,0-2.5,2.83-3.68,4.72-3.68a13.82,13.82,0,0,1,2.86.28,0.81,0.81,0,0,1,.71.77V46.1a0.48,0.48,0,0,1-.11.25l-0.47.38c-0.17.16-.55-0.71-0.88-1.29a2.58,2.58,0,0,0-2.28-1.1c-1.18,0-2.3.69-2.25,1.84,0.06,0.85,1,1.37,2.88,2.53,2.47,1.65,3.87,2.58,3.87,4.64,0,3.1-2.86,4.2-5.05,4.2a6.94,6.94,0,0,1-3.65-.77,1.12,1.12,0,0,1-.74-0.85V53.4Z" transform="translate(-0.06 -0.06)"/><path class="cls-1" d="M251.27,54.34a1.29,1.29,0,0,0,.77,1.43c0.52,0.22,1.15.19,1,.55l-0.22.66a0.54,0.54,0,0,1-.63.25h-2.66a0.7,0.7,0,0,1-.77-0.85V53.68h-0.05a5.79,5.79,0,0,1-5.11,3.87c-3.29,0-5.24-3.08-5.24-6.37a7.8,7.8,0,0,1,7.52-8,11.06,11.06,0,0,1,3.84.74c0.8,0.3,1.51.52,1.51,2.3v8.13ZM241,50.69c0,2.94,1.18,5.24,3.16,5.24S248.8,53,248.8,49c0-2.52-.3-4.64-3-4.64C242.7,44.35,241,47.66,241,50.69Z" transform="translate(-0.06 -0.06)"/><path class="cls-1" d="M257.91,46.26H258a5.92,5.92,0,0,1,5.33-3.1c2.53,0,4,1.43,4,4.7v6.67c0,1.07.41,1.23,1.75,1.51,0.36,0.06.41,0.28,0.3,0.49l-0.22.49a0.53,0.53,0,0,1-.47.19H263.1c-0.22,0-.5-0.05-0.36-0.41l0.17-.44a0.61,0.61,0,0,1,.52-0.38,1.47,1.47,0,0,0,1.37-1.46V49.34c0-3.13-.55-4.42-2.58-4.42-2.2,0-4.31,1.95-4.31,7.8v1.81c0,1.07.41,1.23,1.73,1.51,0.36,0.06.41,0.28,0.3,0.49l-0.22.49a0.54,0.54,0,0,1-.47.19h-5.54c-0.22,0-.49-0.05-0.36-0.41l0.16-.44A0.61,0.61,0,0,1,254,56a1.47,1.47,0,0,0,1.4-1.46V46.18c0-1.07-.41-1.24-1.67-1.48-0.28-.08-0.55-0.19-0.39-0.52l0.25-.49a0.37,0.37,0,0,1,.41-0.19h3.21c0.3,0,.66,0,0.66.55v2.22Z" transform="translate(-0.06 -0.06)"/><path class="cls-1" d="M280.88,39.73c0-1.07-.41-1.23-1.67-1.48-0.27-.08-0.55-0.19-0.38-0.52l0.25-.49a0.37,0.37,0,0,1,.41-0.19h3.13a0.71,0.71,0,0,1,.77.85V54.34a1.28,1.28,0,0,0,.77,1.43c0.52,0.22,1.15.19,1,.55L285,57a0.54,0.54,0,0,1-.63.25h-2.66a0.7,0.7,0,0,1-.77-0.85V54.78h-0.06a5.4,5.4,0,0,1-4.45,2.77c-3,0-5.9-2.42-5.9-6.72a7.49,7.49,0,0,1,10.37-7.08v-4Zm-7.74,11c0,2.94,1.48,5.24,3.6,5.24,2.69,0,4.17-2.25,4.17-6.2,0-3.71-.55-5.38-3-5.38C274.82,44.35,273.14,47.66,273.14,50.69Z" transform="translate(-0.06 -0.06)"/><path class="cls-1" d="M295.7,56.5c0,4.7-2.36,6-4.53,6V61.33a2.18,2.18,0,0,0,1.37-1.18,7.79,7.79,0,0,0,.5-3V40.69c0-1.07-.41-1.23-1.76-1.51-0.36-.05-0.41-0.27-0.3-0.49l0.22-.5a0.53,0.53,0,0,1,.47-0.19h5.76c0.22,0,.5.05,0.36,0.41l-0.17.44a0.6,0.6,0,0,1-.52.38,1.48,1.48,0,0,0-1.4,1.45V56.5Z" transform="translate(-0.06 -0.06)"/><path class="cls-1" d="M301.24,50.46c0,2.75,1.48,5.49,4.42,5.49A4.66,4.66,0,0,0,309,54.69a0.49,0.49,0,0,1,.63.44l-0.74,1.37a1.31,1.31,0,0,1-.52.58,9.1,9.1,0,0,1-3,.47,6.68,6.68,0,0,1-6.75-6.94c0-4.69,2.8-7.44,6.4-7.44,3.35,0,5.24,2.53,5.24,6.2a1,1,0,0,1-.63,1.1h-8.37Zm5.3-1.29A1.12,1.12,0,0,0,307.86,48c0-2.66-1.51-3.57-2.91-3.57-2.31,0-3.71,2.28-3.71,4.78h5.3Z" transform="translate(-0.06 -0.06)"/><path class="cls-1" d="M326.36,56.7c-0.14.33-.19,0.52-0.41,0.52h-0.63a0.66,0.66,0,0,1-.41-0.55l-3.27-9-3.87,9c-0.14.33-.19,0.52-0.41,0.52h-0.63a0.66,0.66,0,0,1-.41-0.55L312.75,46.4a2.26,2.26,0,0,0-1.07-1.48c-0.38-.19-0.66-0.27-0.55-0.52l0.25-.61a0.5,0.5,0,0,1,.52-0.3h5.35c0.28,0,.49.08,0.3,0.49l-0.19.44c-0.22.49-2.5,0.16-1.92,1.87l2.2,6.59L321.31,44a0.67,0.67,0,0,1,.41-0.55h0.63c0.22,0,.27.19,0.39,0.55L325.92,53l2.66-6.64c0.63-1.59-2.39-1.45-2-2.14l0.19-.3a0.64,0.64,0,0,1,.52-0.41h4.36c0.3,0,.58.08,0.47,0.46l-0.14.47c-0.17.46-.44,0.19-1.07,0.82a3.14,3.14,0,0,0-.71,1.15Z" transform="translate(-0.06 -0.06)"/><path class="cls-1" d="M332.42,53.4a0.58,0.58,0,0,1,.11-0.55l0.52-.16c0.36-.14.33,0.88,0.88,1.81a2.93,2.93,0,0,0,2.8,1.89,2.51,2.51,0,0,0,2.77-2.58c-0.06-1.4-2.22-2.41-3.48-3.26-1.46-1-3.21-1.62-3.21-3.71,0-2.5,2.83-3.68,4.72-3.68a13.78,13.78,0,0,1,2.85.28,0.81,0.81,0,0,1,.71.77V46.1a0.49,0.49,0,0,1-.11.25l-0.47.38c-0.17.16-.55-0.71-0.88-1.29a2.57,2.57,0,0,0-2.28-1.1c-1.18,0-2.31.69-2.25,1.84,0.05,0.85,1,1.37,2.88,2.53,2.47,1.65,3.87,2.58,3.87,4.64,0,3.1-2.85,4.2-5,4.2a7,7,0,0,1-3.65-.77,1.12,1.12,0,0,1-.74-0.85V53.4Z" transform="translate(-0.06 -0.06)"/><path class="cls-1" d="M349.19,46.55a3.68,3.68,0,0,1-3.6,3.6,3.6,3.6,0,1,1,0-7.2A3.68,3.68,0,0,1,349.19,46.55Zm-6.68,0a3.12,3.12,0,0,0,3.08,3.08,3.08,3.08,0,1,0,0-6.17A3.12,3.12,0,0,0,342.5,46.55Zm1.83-1.48c0-.21-0.13-0.3-0.4-0.34-0.09,0-.15,0-0.11-0.09l0.05-.1a0.1,0.1,0,0,1,.1-0.06h2a1,1,0,0,1,1.07,1,1.3,1.3,0,0,1-.79,1,5.59,5.59,0,0,0,1.26,1.64v0.17h-0.8a0.27,0.27,0,0,1-.17-0.14l-0.93-1.5H345.1v1.07c0,0.24.08,0.26,0.39,0.33,0.08,0,.09,0,0.07.09l-0.05.1a0.13,0.13,0,0,1-.11.05h-1.46s-0.11,0-.07-0.09l0-.09a0.14,0.14,0,0,1,.1-0.08,0.33,0.33,0,0,0,.33-0.31V45.06Zm0.76,1.26h0.33a0.76,0.76,0,0,0,.85-0.83,0.6,0.6,0,0,0-.73-0.66H345.1v1.49Z" transform="translate(-0.06 -0.06)"/></g><path id="Grad_PMS287C" data-name="Grad PMS287C" class="cls-2" d="M51.63,37.4C53.57,34.62,54.9,24.14,57,21.54A6.89,6.89,0,0,1,61.32,19,5.38,5.38,0,0,1,60,17.19c-0.7-2.58-.5-5.82-4.14-7.27a7.3,7.3,0,0,0-2.71-.56,5.94,5.94,0,0,0-5.44,3.73,10.7,10.7,0,0,1-5.35,6.11c-1.65.84-7.16,2-13.58,7.85-5.29,4.84-7.89,12-9.72,17.11-3.19,8.94-10,10.64-10,10.64l8.07,9.81C19.36,59.78,24.63,51,35.73,48S49.69,40.18,51.63,37.4Z" transform="translate(-0.06 -0.06)"/><g id="DOVE"><path class="cls-1" d="M38.95,2.41h0c-7.12,0-17.31.94-23.38,5.69-1.45,1.12-3,4-4.82,6.57A40,40,0,0,1,4.1,22a0.8,0.8,0,0,1-.46.15h0a0.66,0.66,0,0,1-.69-0.62A0.57,0.57,0,0,1,3,21.29c0.41-.86,4.87-6.62,6.64-10.43C10.91,8.13,12,6.09,14.58,4.58S23.52,0.06,34.18.06A70.92,70.92,0,0,1,46.64,1.41s1.12,0.15,1.07.65-0.34.47-.91,0.47-3.45-.12-7.86-0.12" transform="translate(-0.06 -0.06)"/><path class="cls-1" d="M16,23.78a0.48,0.48,0,0,0-.17,0,5.41,5.41,0,0,0-1.2.9A22.42,22.42,0,0,0,8.06,35.22l-0.35,1.4a30.11,30.11,0,0,1-1.48,4.91C5.39,43.36,4.38,44.22,3,44.34L2.9,43.79a34.83,34.83,0,0,1-.22-6,41.7,41.7,0,0,1,2-11.47,0.87,0.87,0,0,0,0-.21,0.55,0.55,0,0,0-.55-0.6,0.89,0.89,0,0,0-.85.59A38,38,0,0,0,.08,40.2a34.52,34.52,0,0,0,.33,5.28,1.55,1.55,0,0,0,.85,1.09,0.15,0.15,0,0,0,.07,0h0l0,0H1.48a8.12,8.12,0,0,0,1,.11h0a5.72,5.72,0,0,0,4.16-1.44c2.05-1.93,2.72-4.75,3.42-7.74a36.7,36.7,0,0,1,1.36-4.78,32,32,0,0,1,4.42-7.69c0.25-.34.45-0.61,0.5-0.71a0.55,0.55,0,0,0,.06-0.22,0.41,0.41,0,0,0-.4-0.39" transform="translate(-0.06 -0.06)"/><path class="cls-1" d="M3.29,24.36a0.86,0.86,0,0,1-.67-0.67,0.36,0.36,0,0,1,.07-0.22h0a1.1,1.1,0,0,1,.91-0.28l0.88,0a16.43,16.43,0,0,0,7.85-3,23.82,23.82,0,0,0,7-7.09A0.81,0.81,0,0,1,20,12.81a1.35,1.35,0,0,1,.45.09,27.19,27.19,0,0,0,8.78,1.46c4.66,0,7.7-1.18,8.56-1.2a0.48,0.48,0,0,1,.37.14h0a0.38,0.38,0,0,1,.1.25,0.73,0.73,0,0,1-.36.52,5.66,5.66,0,0,1-.71.44,17.72,17.72,0,0,1-2.54,1.09,26.34,26.34,0,0,1-8.52,1.44,23.79,23.79,0,0,1-5-.53c-0.85,1-5.7,6.1-12.62,7.66a15.86,15.86,0,0,1-3.38.44,4.85,4.85,0,0,1-1.77-.26" transform="translate(-0.06 -0.06)"/><path class="cls-1" d="M21.25,26.24a0.38,0.38,0,0,1,.34.38,0.54,0.54,0,0,1-.12.29l-0.12.14a24.46,24.46,0,0,0-4.5,8.3c-0.41,1.2-.77,2.53-1.15,3.93C14.56,43.48,13,48.18,10,50.14a7.64,7.64,0,0,1-4.22,1,3,3,0,0,1-2-.55,0.85,0.85,0,0,1-.18-0.48,0.28,0.28,0,0,1,.25-0.25A7,7,0,0,0,9.24,47.5c1.87-2.07,3-5.14,3.73-7.88,0.18-.65.34-1.27,0.52-1.85,2.24-7.29,6.39-10.9,7.46-11.46a0.67,0.67,0,0,1,.31-0.08" transform="translate(-0.06 -0.06)"/><path class="cls-1" d="M34.71,69.24h0c7.12,0,17.31-.94,23.38-5.69,1.45-1.12,3-4,4.82-6.57a39.91,39.91,0,0,1,6.64-7.35A0.8,0.8,0,0,1,70,49.49h0a0.66,0.66,0,0,1,.69.63,0.58,0.58,0,0,1-.06.25C70.25,51.22,65.79,57,64,60.79c-1.27,2.73-2.32,4.77-4.95,6.28s-8.94,4.52-19.59,4.52A70.93,70.93,0,0,1,27,70.24s-1.12-.15-1.07-0.65,0.34-.47.91-0.47,3.45,0.12,7.86.12" transform="translate(-0.06 -0.06)"/><path class="cls-1" d="M57.65,47.87a0.49,0.49,0,0,0,.17,0A5.44,5.44,0,0,0,59,47a22.43,22.43,0,0,0,6.56-10.52L65.94,35a30.27,30.27,0,0,1,1.48-4.91c0.84-1.82,1.85-2.69,3.27-2.8l0.05,0.54a34.59,34.59,0,0,1,.22,6,41.65,41.65,0,0,1-2,11.47,0.88,0.88,0,0,0,0,.21,0.55,0.55,0,0,0,.55.6,0.89,0.89,0,0,0,.84-0.59,38,38,0,0,0,3.23-14.05,34.64,34.64,0,0,0-.33-5.28,1.55,1.55,0,0,0-.85-1.09l-0.07,0h0l0,0H72.18a8.12,8.12,0,0,0-1-.11h0A5.72,5.72,0,0,0,67,26.35c-2.05,1.93-2.72,4.75-3.42,7.74a36.85,36.85,0,0,1-1.35,4.78,32,32,0,0,1-4.42,7.69c-0.25.34-.45,0.61-0.5,0.71a0.55,0.55,0,0,0-.06.22,0.41,0.41,0,0,0,.4.39" transform="translate(-0.06 -0.06)"/><path class="cls-1" d="M70.37,47.3A0.87,0.87,0,0,1,71,48a0.37,0.37,0,0,1-.07.22h0a1.1,1.1,0,0,1-.91.28l-0.88,0a16.43,16.43,0,0,0-7.85,3,23.84,23.84,0,0,0-7,7.09,0.81,0.81,0,0,1-.65.31,1.36,1.36,0,0,1-.45-0.09,27.18,27.18,0,0,0-8.78-1.46c-4.66,0-7.7,1.18-8.56,1.2a0.48,0.48,0,0,1-.37-0.14h0a0.37,0.37,0,0,1-.1-0.25,0.73,0.73,0,0,1,.36-0.52,5.71,5.71,0,0,1,.71-0.44A17.74,17.74,0,0,1,39,56a26.35,26.35,0,0,1,8.52-1.44,23.82,23.82,0,0,1,5,.53c0.85-1,5.7-6.1,12.61-7.66A15.86,15.86,0,0,1,68.59,47a4.86,4.86,0,0,1,1.77.26" transform="translate(-0.06 -0.06)"/><path class="cls-1" d="M52.66,45.59a0.38,0.38,0,0,1-.35-0.37,0.54,0.54,0,0,1,.11-0.3l0.11-.14a24.5,24.5,0,0,0,4.31-8.41c0.38-1.22.71-2.55,1.06-4,1-4.22,2.49-9,5.45-11a7.65,7.65,0,0,1,4.2-1.09,3,3,0,0,1,2,.51,0.85,0.85,0,0,1,.19.48,0.28,0.28,0,0,1-.24.25A7,7,0,0,0,64.16,24c-1.82,2.12-2.85,5.21-3.54,8-0.16.65-.31,1.28-0.48,1.86C58.09,41.22,54,44.93,53,45.51a0.66,0.66,0,0,1-.3.08" transform="translate(-0.06 -0.06)"/><path class="cls-1" d="M27.4,40c0-.94,5.24,0,11.86-3.88s7.06-9,8.1-8.94S46.3,34.44,41.49,37.5C35.71,41.17,27.37,40.86,27.4,40" transform="translate(-0.06 -0.06)"/><path class="cls-1" d="M54.81,15.62a1,1,0,1,1-1.13-.78,1,1,0,0,1,1.13.78" transform="translate(-0.06 -0.06)"/><path class="cls-1" d="M61.94,18.71a4.56,4.56,0,0,1-1.73-3.46h0A6.9,6.9,0,0,0,52,8.64a6.93,6.93,0,0,0-4.58,3.06v0c-1.58,2.23-1.88,5.13-5.47,6.51-6.34,2.43-16.92,6-21.79,19.51C16.1,49,13.61,52.72,9,54.22c-0.68.27-.11,0.6,0.19,0.62,1.22,0.1,4.94-.43,8.2-5.94C21.47,42,23,35,27.89,29.75c8.49-9.24,8.5-5.53,16.17-10.77a10,10,0,0,0,4.06-5.31,5.88,5.88,0,0,1,.51-0.94h0a5.38,5.38,0,0,1,9.52.48h0a4.76,4.76,0,0,1,.44,1.54c0.11,1,.19,2.76,1.3,3.73a8.53,8.53,0,0,0-3.21,1.88c-1.53,1.86-2.24,3.17-4.33,11.77C50.63,39.24,44.69,43,39.67,45.07c-3.81,1.57-9.35,2.67-14.58,7.16a27.74,27.74,0,0,0-8,11.85c-0.12.46,0.17,0.46,0.35,0.3a2.76,2.76,0,0,0,.49-0.66c1.37-2.17,5.43-9.09,10.82-11.94C39,46.33,43.15,48.15,50.17,40.87,56.5,34.31,54.25,26.41,58,21.22a5.42,5.42,0,0,1,4-1.65c0.35-.07.56-0.41-0.08-0.86" transform="translate(-0.06 -0.06)"/><path class="cls-1" d="M71.07,67.28a3.68,3.68,0,0,1-3.6,3.6,3.6,3.6,0,1,1,0-7.2A3.68,3.68,0,0,1,71.07,67.28Zm-6.68,0a3.12,3.12,0,0,0,3.08,3.08,3.08,3.08,0,1,0,0-6.17A3.12,3.12,0,0,0,64.39,67.28Zm1.83-1.48c0-.21-0.13-0.3-0.4-0.34-0.09,0-.15,0-0.11-0.09l0.05-.1a0.1,0.1,0,0,1,.1-0.06h2a1,1,0,0,1,1.07,1,1.3,1.3,0,0,1-.79,1,5.59,5.59,0,0,0,1.26,1.64v0.17h-0.8a0.27,0.27,0,0,1-.17-0.14l-0.93-1.5H67v1.07c0,0.24.08,0.26,0.39,0.33,0.08,0,.09,0,0.07.09l0,0.1a0.13,0.13,0,0,1-.11.05H65.82s-0.11,0-.07-0.09l0-.09a0.14,0.14,0,0,1,.1-0.08,0.33,0.33,0,0,0,.33-0.31V65.8ZM67,67.06h0.33a0.76,0.76,0,0,0,.85-0.83,0.6,0.6,0,0,0-.73-0.66H67v1.49Z" transform="translate(-0.06 -0.06)"/></g></svg>